<?xml version="1.0" encoding="UTF-8"?>
<svg id="Camada_1" xmlns="http://www.w3.org/2000/svg" version="1.1" viewBox="0 0 1024 1024">
  <!-- Generator: Adobe Illustrator 30.4.0, SVG Export Plug-In . SVG Version: 2.1.4 Build 226)  -->
  <defs>
    <style>
      .st0 {
        fill: #670dfb;
      }
    </style>
  </defs>
  <path class="st0" d="M278.4,352.4c-21.9,86.9-10.2,167.7,32,244.3,12.3,22.3,5,42.6-19,52-9,3.5-18.3,8.2-25.1,14.7-45.5,43.5-90.5,87.6-135.5,131.7-31.1,30.4-33.3,72.1-5.7,98.9,28.5,27.6,68.5,25,99.1-5.9,57.4-58,115-115.7,172.6-173.5,3.5-3.5,7.3-6.6,10.7-9.7,20.7,10.4,39.9,21.4,60.2,30,138.9,58.8,301.5,11.5,391.3-113.4,86-119.6,77.2-287.3-21.2-399.5-164.6-187.8-470.7-127.7-552.1,108.4-2.3,6.8-4.7,13.5-7.4,22M507.3,645.7c-82.7-34.9-133.8-96.1-142.7-185.6-14.9-149.8,104.4-265.8,255.9-249.2,91,9.9,156.4,59.7,187.8,145.8,32.1,88.2,15.9,170.7-51.8,237.4-69.7,68.6-153.6,83.5-249.1,51.7Z"/>
</svg>