<?xml version="1.0" encoding="UTF-8"?>
<svg id="Camada_1" xmlns="http://www.w3.org/2000/svg" version="1.1" viewBox="0 0 1024 1024">
  <!-- Generator: Adobe Illustrator 30.4.0, SVG Export Plug-In . SVG Version: 2.1.4 Build 226)  -->
  <defs>
    <style>
      .st0 {
        fill: #660dfb;
      }
    </style>
  </defs>
  <path class="st0" d="M868.4,153.5c31.5,8.4,42,21.2,42.2,50.9.3,51.8.5,103.5.3,155.3-.1,32.8-17.1,49.6-50.2,49.7-51,.2-102-.3-153,0-22.7.2-39.6-8.7-48.7-29.3-9.8-22.1-2-41.1,14-57.2,13.1-13.2,27-25.7,45.4-43.2-28.4-16.7-52.3-35.2-79.2-45.9-116.1-45.8-224-27.4-316.1,55.5-86.7,78.1-117.8,179.8-89.5,292.6,30.7,122.5,110.9,200.6,237.2,224.6,136.3,25.9,270.1-42.1,331.4-165.8,2.3-4.7,4.5-9.5,7.2-14,15.6-26.2,48-36.6,74.1-24,26.9,13,36.6,42.7,23.5,73-24.2,56-58.8,104.7-105.5,143.9-124,104.1-265.4,133.1-416.6,78.2-151.5-55-241.8-168.5-268.5-328.1-34.6-207,111.4-415.4,322.2-461,124.4-26.9,238.1-.6,338.8,78.3,5.3,4.1,10.7,8.2,16.5,12.7,25.5-14,36.3-50.7,74.6-46.4Z"/>
</svg>